<svg xmlns="http://www.w3.org/2000/svg" viewBox="0 0 31 31" width="31" height="31">
	<style>
		tspan { white-space:pre }
		.shp0 { fill: #fc635e } 
	</style>
	<g id="Testimonials">
		<g id="slider">
			<path id="Фигура 11 копия" class="shp0" d="M15.5 31C24.04 31 31 24.05 31 15.5C31 6.95 24.04 0 15.5 0C6.95 0 -0.01 6.95 -0.01 15.5C-0.01 24.05 6.95 31 15.5 31ZM15.5 1.42C23.26 1.42 29.57 7.74 29.57 15.5C29.57 23.26 23.26 29.58 15.5 29.58C7.73 29.58 1.41 23.26 1.41 15.5C1.41 7.74 7.73 1.42 15.5 1.42ZM21.76 25.64L15.7 15.44L21.76 5.56L4.37 15.6L21.76 25.64Z" />
		</g>
	</g>
</svg>