<svg xmlns="http://www.w3.org/2000/svg" viewBox="0 0 74 86" width="74" height="86">
	<style>
		tspan { white-space:pre }
		.shp0 { fill: #fe8682 } 
		.shp1 { fill: #fc635e } 
		.shp2 { fill: #ffffff } 
	</style>
	<g id="Testimonials">
		<g id="heading">
			<path id="Фигура 3" class="shp0" d="M-0.01 21.5L37 0L74.01 21.5L74.01 64.5L37 86L-0.01 64.5L-0.01 21.5Z" />
			<path id="Фигура 3 копия" class="shp1" d="M3.7 23.73L37 4.45L70.31 23.73L70.31 62.27L37 81.55L3.7 62.27L3.7 23.73Z" />
			<path id="Forma 1" class="shp2" d="M27.28 41.17C27.28 36.82 27.28 36.1 30.93 36.1L30.93 28.01C22.43 28.01 19.99 33.69 19.99 43.71L19.99 56.99L35.79 56.99L35.79 43.71L27.28 43.71L27.28 41.17ZM45.51 43.71L45.51 41.17C45.51 36.82 45.51 36.1 49.15 36.1L49.15 28.01C40.65 28.01 38.22 33.69 38.22 43.71L38.22 56.99L54.01 56.99L54.01 43.71L45.51 43.71Z" />
		</g>
	</g>
</svg>