<svg xmlns="http://www.w3.org/2000/svg" viewBox="0 0 31 31" width="31" height="31">
	<style>
		tspan { white-space:pre }
		.shp0 { fill: #fc635e } 
	</style>
	<g id="Testimonials">
		<g id="slider">
			<path id="Фигура 11" class="shp0" d="M15.5 31C6.96 31 0 24.05 0 15.5C0 6.95 6.96 0 15.5 0C24.05 0 31.01 6.95 31.01 15.5C31.01 24.05 24.05 31 15.5 31ZM15.5 1.42C7.74 1.42 1.43 7.74 1.43 15.5C1.43 23.26 7.74 29.58 15.5 29.58C23.27 29.58 29.59 23.26 29.59 15.5C29.59 7.74 23.27 1.42 15.5 1.42ZM9.24 25.64L15.3 15.44L9.24 5.56L26.63 15.6L9.24 25.64Z" />
		</g>
	</g>
</svg>